<svg xmlns="http://www.w3.org/2000/svg" xmlns:xlink="http://www.w3.org/1999/xlink" version="1.1" data-diagram-type="SEQUENCE" style="width:1687px;height:772px;background:#FFFFFF;" width="1687px" height="772px" viewBox="0 0 1687 772" zoomAndPan="magnify" preserveAspectRatio="none" contentStyleType="text/css"><?plantuml 1.2026.8beta1?><defs><filter id="fpgruwc2kkes7" x="-1" y="-1" width="300%" height="300%"><feGaussianBlur result="blurOut" stdDeviation="2"/><feColorMatrix type="matrix" in="blurOut" result="blurOut2" values="0 0 0 0 0 0 0 0 0 0 0 0 0 0 0 0 0 0 .4 0"/><feOffset result="blurOut3" in="blurOut2" dx="4" dy="4"/><feBlend in="SourceGraphic" in2="blurOut3" mode="normal"/></filter></defs><g font-family="sans-serif" lengthAdjust="spacing"><g class="title" data-source-line="37"><text x="457.902" y="35.421" fill="#2D3748" font-size="22" textLength="769.205" font-weight="700" font-family="'Segoe UI', 'Helvetica', 'Arial', sans-serif">Diagrama de Secuencia: Solicitud de Servicio a Medida y Chat</text></g><g><title>Estudiante . Cliente</title><rect x="68.469" y="134.578" width="8" height="549.406" fill="#000" fill-opacity="0"/><line x1="71.969" y1="134.578" x2="71.969" y2="683.984" style="stroke:#4A5568;stroke-width:1;stroke-dasharray:5,5;"/></g><g><title>Docente . Proveedor</title><rect x="205.037" y="134.578" width="8" height="549.406" fill="#000" fill-opacity="0"/><line x1="208.537" y1="134.578" x2="208.537" y2="683.984" style="stroke:#4A5568;stroke-width:1;stroke-dasharray:5,5;"/></g><g><title>views.form-solicitar-servicio.php</title><rect x="592.365" y="134.578" width="8" height="549.406" fill="#000" fill-opacity="0"/><line x1="595.865" y1="134.578" x2="595.865" y2="683.984" style="stroke:#4A5568;stroke-width:1;stroke-dasharray:5,5;"/></g><g><title>views.solicitud-servicio-detalle.php</title><rect x="811.188" y="134.578" width="8" height="549.406" fill="#000" fill-opacity="0"/><line x1="814.688" y1="134.578" x2="814.688" y2="683.984" style="stroke:#4A5568;stroke-width:1;stroke-dasharray:5,5;"/></g><g><title>php.solicitudes.crear_solicitud.php</title><rect x="1036.892" y="134.578" width="8" height="549.406" fill="#000" fill-opacity="0"/><line x1="1040.392" y1="134.578" x2="1040.392" y2="683.984" style="stroke:#4A5568;stroke-width:1;stroke-dasharray:5,5;"/></g><g><title></title><rect x="1035.392" y="190.516" width="10" height="83.906" fill="#EDF2F7" style="stroke:#000;stroke-width:1;" filter="url(#fpgruwc2kkes7)"/></g><g><title></title><rect x="1035.392" y="582.078" width="10" height="55.938" fill="#EDF2F7" style="stroke:#000;stroke-width:1;" filter="url(#fpgruwc2kkes7)"/></g><g><title>php.solicitudes.mensajes_solicitud.php</title><rect x="1274.575" y="134.578" width="8" height="549.406" fill="#000" fill-opacity="0"/><line x1="1278.075" y1="134.578" x2="1278.075" y2="683.984" style="stroke:#4A5568;stroke-width:1;stroke-dasharray:5,5;"/></g><g><title></title><rect x="1273.075" y="414.266" width="10" height="111.875" fill="#EDF2F7" style="stroke:#000;stroke-width:1;" filter="url(#fpgruwc2kkes7)"/></g><g><title>Base de Datos .MySQL.</title><rect x="1598.948" y="134.578" width="8" height="549.406" fill="#000" fill-opacity="0"/><line x1="1602.448" y1="134.578" x2="1602.448" y2="683.984" style="stroke:#4A5568;stroke-width:1;stroke-dasharray:5,5;"/></g><text x="10" y="131.748" fill="#2D3748" font-size="12" textLength="117.938" font-family="'Segoe UI', 'Helvetica', 'Arial', sans-serif">Estudiante / Cliente</text><ellipse cx="71.969" cy="65.609" rx="8" ry="8" fill="#EBF8FF" style="stroke:#2B6CB0;stroke-width:1;" filter="url(#fpgruwc2kkes7)"/><path d="M71.969,73.609 L71.969,100.609 M58.969,81.609 L84.969,81.609 M71.969,100.609 L58.969,115.609 M71.969,100.609 L84.969,115.609" style="stroke:#2B6CB0;stroke-width:1;" fill="none" filter="url(#fpgruwc2kkes7)"/><text x="143.938" y="131.748" fill="#2D3748" font-size="12" textLength="123.199" font-family="'Segoe UI', 'Helvetica', 'Arial', sans-serif">Docente / Proveedor</text><ellipse cx="208.537" cy="65.609" rx="8" ry="8" fill="#EBF8FF" style="stroke:#2B6CB0;stroke-width:1;" filter="url(#fpgruwc2kkes7)"/><path d="M208.537,73.609 L208.537,100.609 M195.537,81.609 L221.537,81.609 M208.537,100.609 L195.537,115.609 M208.537,100.609 L221.537,115.609" style="stroke:#2B6CB0;stroke-width:1;" fill="none" filter="url(#fpgruwc2kkes7)"/><text x="495.418" y="131.748" fill="#2D3748" font-size="12" textLength="194.895" font-family="'Segoe UI', 'Helvetica', 'Arial', sans-serif">views/form-solicitar-servicio.php</text><path d="M575.365,92.609 L575.365,116.609 M575.365,104.609 L592.365,104.609" style="stroke:#000;stroke-width:1;" fill="none" filter="url(#fpgruwc2kkes7)"/><ellipse cx="604.365" cy="104.609" rx="12" ry="12" fill="#FFF" style="stroke:#000;stroke-width:1;" filter="url(#fpgruwc2kkes7)"/><text x="706.313" y="131.748" fill="#2D3748" font-size="12" textLength="210.75" font-family="'Segoe UI', 'Helvetica', 'Arial', sans-serif">views/solicitud-servicio-detalle.php</text><path d="M794.188,92.609 L794.188,116.609 M794.188,104.609 L811.188,104.609" style="stroke:#000;stroke-width:1;" fill="none" filter="url(#fpgruwc2kkes7)"/><ellipse cx="823.188" cy="104.609" rx="12" ry="12" fill="#FFF" style="stroke:#000;stroke-width:1;" filter="url(#fpgruwc2kkes7)"/><text x="933.063" y="131.748" fill="#2D3748" font-size="12" textLength="208.658" font-family="'Segoe UI', 'Helvetica', 'Arial', sans-serif">php/solicitudes/crear_solicitud.php</text><ellipse cx="1040.392" cy="104.609" rx="12" ry="12" fill="#FFF" style="stroke:#000;stroke-width:1;" filter="url(#fpgruwc2kkes7)"/><polygon points="1036.392,92.609,1042.392,87.609,1040.392,92.609,1042.392,97.609,1036.392,92.609" fill="#000" style="stroke:#000;stroke-width:1;stroke-linejoin:miter;stroke-miterlimit:10;"/><text x="1157.721" y="131.748" fill="#2D3748" font-size="12" textLength="234.709" font-family="'Segoe UI', 'Helvetica', 'Arial', sans-serif">php/solicitudes/mensajes_solicitud.php</text><ellipse cx="1278.075" cy="104.609" rx="12" ry="12" fill="#FFF" style="stroke:#000;stroke-width:1;" filter="url(#fpgruwc2kkes7)"/><polygon points="1274.075,92.609,1280.075,87.609,1278.075,92.609,1280.075,97.609,1274.075,92.609" fill="#000" style="stroke:#000;stroke-width:1;stroke-linejoin:miter;stroke-miterlimit:10;"/><text x="1528.887" y="131.748" fill="#2D3748" font-size="12" textLength="141.123" font-family="'Segoe UI', 'Helvetica', 'Arial', sans-serif">Base de Datos (MySQL)</text><ellipse cx="1602.448" cy="104.609" rx="12" ry="12" fill="#FFF" style="stroke:#2B6CB0;stroke-width:1;" filter="url(#fpgruwc2kkes7)"/><line x1="1590.448" y1="118.609" x2="1614.448" y2="118.609" style="stroke:#2B6CB0;stroke-width:1;"/><text x="10" y="695.123" fill="#2D3748" font-size="12" textLength="117.938" font-family="'Segoe UI', 'Helvetica', 'Arial', sans-serif">Estudiante / Cliente</text><ellipse cx="71.969" cy="706.953" rx="8" ry="8" fill="#EBF8FF" style="stroke:#2B6CB0;stroke-width:1;" filter="url(#fpgruwc2kkes7)"/><path d="M71.969,714.953 L71.969,741.953 M58.969,722.953 L84.969,722.953 M71.969,741.953 L58.969,756.953 M71.969,741.953 L84.969,756.953" style="stroke:#2B6CB0;stroke-width:1;" fill="none" filter="url(#fpgruwc2kkes7)"/><text x="143.938" y="695.123" fill="#2D3748" font-size="12" textLength="123.199" font-family="'Segoe UI', 'Helvetica', 'Arial', sans-serif">Docente / Proveedor</text><ellipse cx="208.537" cy="706.953" rx="8" ry="8" fill="#EBF8FF" style="stroke:#2B6CB0;stroke-width:1;" filter="url(#fpgruwc2kkes7)"/><path d="M208.537,714.953 L208.537,741.953 M195.537,722.953 L221.537,722.953 M208.537,741.953 L195.537,756.953 M208.537,741.953 L221.537,756.953" style="stroke:#2B6CB0;stroke-width:1;" fill="none" filter="url(#fpgruwc2kkes7)"/><text x="495.418" y="695.123" fill="#2D3748" font-size="12" textLength="194.895" font-family="'Segoe UI', 'Helvetica', 'Arial', sans-serif">views/form-solicitar-servicio.php</text><path d="M575.365,701.953 L575.365,725.953 M575.365,713.953 L592.365,713.953" style="stroke:#000;stroke-width:1;" fill="none" filter="url(#fpgruwc2kkes7)"/><ellipse cx="604.365" cy="713.953" rx="12" ry="12" fill="#FFF" style="stroke:#000;stroke-width:1;" filter="url(#fpgruwc2kkes7)"/><text x="706.313" y="695.123" fill="#2D3748" font-size="12" textLength="210.75" font-family="'Segoe UI', 'Helvetica', 'Arial', sans-serif">views/solicitud-servicio-detalle.php</text><path d="M794.188,701.953 L794.188,725.953 M794.188,713.953 L811.188,713.953" style="stroke:#000;stroke-width:1;" fill="none" filter="url(#fpgruwc2kkes7)"/><ellipse cx="823.188" cy="713.953" rx="12" ry="12" fill="#FFF" style="stroke:#000;stroke-width:1;" filter="url(#fpgruwc2kkes7)"/><text x="933.063" y="695.123" fill="#2D3748" font-size="12" textLength="208.658" font-family="'Segoe UI', 'Helvetica', 'Arial', sans-serif">php/solicitudes/crear_solicitud.php</text><ellipse cx="1040.392" cy="713.953" rx="12" ry="12" fill="#FFF" style="stroke:#000;stroke-width:1;" filter="url(#fpgruwc2kkes7)"/><polygon points="1036.392,701.953,1042.392,696.953,1040.392,701.953,1042.392,706.953,1036.392,701.953" fill="#000" style="stroke:#000;stroke-width:1;stroke-linejoin:miter;stroke-miterlimit:10;"/><text x="1157.721" y="695.123" fill="#2D3748" font-size="12" textLength="234.709" font-family="'Segoe UI', 'Helvetica', 'Arial', sans-serif">php/solicitudes/mensajes_solicitud.php</text><ellipse cx="1278.075" cy="713.953" rx="12" ry="12" fill="#FFF" style="stroke:#000;stroke-width:1;" filter="url(#fpgruwc2kkes7)"/><polygon points="1274.075,701.953,1280.075,696.953,1278.075,701.953,1280.075,706.953,1274.075,701.953" fill="#000" style="stroke:#000;stroke-width:1;stroke-linejoin:miter;stroke-miterlimit:10;"/><text x="1528.887" y="695.123" fill="#2D3748" font-size="12" textLength="141.123" font-family="'Segoe UI', 'Helvetica', 'Arial', sans-serif">Base de Datos (MySQL)</text><ellipse cx="1602.448" cy="713.953" rx="12" ry="12" fill="#FFF" style="stroke:#2B6CB0;stroke-width:1;" filter="url(#fpgruwc2kkes7)"/><line x1="1590.448" y1="727.953" x2="1614.448" y2="727.953" style="stroke:#2B6CB0;stroke-width:1;"/><polygon points="583.865,158.547,593.865,162.547,583.865,166.547,587.865,162.547" fill="#3182CE" style="stroke:#3182CE;stroke-width:1;stroke-linejoin:miter;stroke-miterlimit:10;"/><line x1="71.969" y1="162.547" x2="589.865" y2="162.547" style="stroke:#3182CE;stroke-width:1;"/><text x="78.969" y="157.717" fill="#2D3748" font-size="12" font-weight="700" font-family="'Segoe UI', 'Helvetica', 'Arial', sans-serif">1</text><text x="91.318" y="157.717" fill="#2D3748" font-size="12" textLength="487.547" font-family="'Segoe UI', 'Helvetica', 'Arial', sans-serif">Completa formulario de requerimiento (título, descripción, presupuesto, adjunto)</text><polygon points="1023.392,186.516,1033.392,190.516,1023.392,194.516,1027.392,190.516" fill="#3182CE" style="stroke:#3182CE;stroke-width:1;stroke-linejoin:miter;stroke-miterlimit:10;"/><line x1="595.865" y1="190.516" x2="1029.392" y2="190.516" style="stroke:#3182CE;stroke-width:1;"/><text x="602.865" y="185.686" fill="#2D3748" font-size="12" font-weight="700" font-family="'Segoe UI', 'Helvetica', 'Arial', sans-serif">2</text><text x="615.215" y="185.686" fill="#2D3748" font-size="12" textLength="153.463" font-family="'Segoe UI', 'Helvetica', 'Arial', sans-serif">POST /crear_solicitud.php</text><polygon points="1590.448,214.484,1600.448,218.484,1590.448,222.484,1594.448,218.484" fill="#3182CE" style="stroke:#3182CE;stroke-width:1;stroke-linejoin:miter;stroke-miterlimit:10;"/><line x1="1045.392" y1="218.484" x2="1596.448" y2="218.484" style="stroke:#3182CE;stroke-width:1;"/><text x="1052.392" y="213.654" fill="#2D3748" font-size="12" font-weight="700" font-family="'Segoe UI', 'Helvetica', 'Arial', sans-serif">3</text><text x="1064.741" y="213.654" fill="#2D3748" font-size="12" textLength="293.865" font-family="'Segoe UI', 'Helvetica', 'Arial', sans-serif">INSERT INTO solicitudes (estado='Pendiente', ...)</text><polygon points="1056.392,242.453,1046.392,246.453,1056.392,250.453,1052.392,246.453" fill="#3182CE" style="stroke:#3182CE;stroke-width:1;stroke-linejoin:miter;stroke-miterlimit:10;"/><line x1="1050.392" y1="246.453" x2="1601.448" y2="246.453" style="stroke:#3182CE;stroke-width:1;stroke-dasharray:2,2;"/><text x="1062.392" y="241.623" fill="#2D3748" font-size="12" font-weight="700" font-family="'Segoe UI', 'Helvetica', 'Arial', sans-serif">4</text><text x="1074.741" y="241.623" fill="#2D3748" font-size="12" textLength="67.072" font-family="'Segoe UI', 'Helvetica', 'Arial', sans-serif">id_solicitud</text><polygon points="606.865,270.422,596.865,274.422,606.865,278.422,602.865,274.422" fill="#3182CE" style="stroke:#3182CE;stroke-width:1;stroke-linejoin:miter;stroke-miterlimit:10;"/><line x1="600.865" y1="274.422" x2="1034.392" y2="274.422" style="stroke:#3182CE;stroke-width:1;stroke-dasharray:2,2;"/><text x="612.865" y="269.592" fill="#2D3748" font-size="12" font-weight="700" font-family="'Segoe UI', 'Helvetica', 'Arial', sans-serif">5</text><text x="625.215" y="269.592" fill="#2D3748" font-size="12" textLength="271.969" font-family="'Segoe UI', 'Helvetica', 'Arial', sans-serif">Redirige a "Mis Solicitudes" con confirmación</text><polygon points="802.688,298.391,812.688,302.391,802.688,306.391,806.688,302.391" fill="#3182CE" style="stroke:#3182CE;stroke-width:1;stroke-linejoin:miter;stroke-miterlimit:10;"/><line x1="208.537" y1="302.391" x2="808.688" y2="302.391" style="stroke:#3182CE;stroke-width:1;"/><text x="215.537" y="297.561" fill="#2D3748" font-size="12" font-weight="700" font-family="'Segoe UI', 'Helvetica', 'Arial', sans-serif">6</text><text x="227.887" y="297.561" fill="#2D3748" font-size="12" textLength="242.449" font-family="'Segoe UI', 'Helvetica', 'Arial', sans-serif">Accede al detalle de la solicitud recibida</text><polygon points="1590.448,326.359,1600.448,330.359,1590.448,334.359,1594.448,330.359" fill="#3182CE" style="stroke:#3182CE;stroke-width:1;stroke-linejoin:miter;stroke-miterlimit:10;"/><line x1="208.537" y1="330.359" x2="1596.448" y2="330.359" style="stroke:#3182CE;stroke-width:1;"/><text x="215.537" y="325.529" fill="#2D3748" font-size="12" font-weight="700" font-family="'Segoe UI', 'Helvetica', 'Arial', sans-serif">7</text><text x="227.887" y="325.529" fill="#2D3748" font-size="12" textLength="234.393" font-family="'Segoe UI', 'Helvetica', 'Arial', sans-serif">Consulta datos de solicitud y mensajes</text><polygon points="825.688,354.328,815.688,358.328,825.688,362.328,821.688,358.328" fill="#3182CE" style="stroke:#3182CE;stroke-width:1;stroke-linejoin:miter;stroke-miterlimit:10;"/><line x1="819.688" y1="358.328" x2="1601.448" y2="358.328" style="stroke:#3182CE;stroke-width:1;stroke-dasharray:2,2;"/><text x="831.688" y="353.498" fill="#2D3748" font-size="12" font-weight="700" font-family="'Segoe UI', 'Helvetica', 'Arial', sans-serif">8</text><text x="844.037" y="353.498" fill="#2D3748" font-size="12" textLength="189.721" font-family="'Segoe UI', 'Helvetica', 'Arial', sans-serif">Carga historial de conversación</text><polygon points="802.688,382.297,812.688,386.297,802.688,390.297,806.688,386.297" fill="#3182CE" style="stroke:#3182CE;stroke-width:1;stroke-linejoin:miter;stroke-miterlimit:10;"/><line x1="208.537" y1="386.297" x2="808.688" y2="386.297" style="stroke:#3182CE;stroke-width:1;"/><text x="215.537" y="381.467" fill="#2D3748" font-size="12" font-weight="700" font-family="'Segoe UI', 'Helvetica', 'Arial', sans-serif">9</text><text x="227.887" y="381.467" fill="#2D3748" font-size="12" textLength="269.098" font-family="'Segoe UI', 'Helvetica', 'Arial', sans-serif">Escribe contraoferta / mensaje de aclaración</text><polygon points="1261.075,410.266,1271.075,414.266,1261.075,418.266,1265.075,414.266" fill="#3182CE" style="stroke:#3182CE;stroke-width:1;stroke-linejoin:miter;stroke-miterlimit:10;"/><line x1="814.688" y1="414.266" x2="1267.075" y2="414.266" style="stroke:#3182CE;stroke-width:1;"/><text x="821.688" y="409.436" fill="#2D3748" font-size="12" textLength="16.699" font-weight="700" font-family="'Segoe UI', 'Helvetica', 'Arial', sans-serif">10</text><text x="842.387" y="409.436" fill="#2D3748" font-size="12" textLength="127.969" font-family="'Segoe UI', 'Helvetica', 'Arial', sans-serif">POST enviar mensaje</text><polygon points="1590.448,438.234,1600.448,442.234,1590.448,446.234,1594.448,442.234" fill="#3182CE" style="stroke:#3182CE;stroke-width:1;stroke-linejoin:miter;stroke-miterlimit:10;"/><line x1="1283.075" y1="442.234" x2="1596.448" y2="442.234" style="stroke:#3182CE;stroke-width:1;"/><text x="1290.075" y="437.404" fill="#2D3748" font-size="12" textLength="16.699" font-weight="700" font-family="'Segoe UI', 'Helvetica', 'Arial', sans-serif">11</text><text x="1310.774" y="437.404" fill="#2D3748" font-size="12" textLength="218.297" font-family="'Segoe UI', 'Helvetica', 'Arial', sans-serif">INSERT INTO solicitud_mensajes (...)</text><polygon points="1590.448,466.203,1600.448,470.203,1590.448,474.203,1594.448,470.203" fill="#3182CE" style="stroke:#3182CE;stroke-width:1;stroke-linejoin:miter;stroke-miterlimit:10;"/><line x1="1283.075" y1="470.203" x2="1596.448" y2="470.203" style="stroke:#3182CE;stroke-width:1;"/><text x="1290.075" y="465.373" fill="#2D3748" font-size="12" textLength="16.699" font-weight="700" font-family="'Segoe UI', 'Helvetica', 'Arial', sans-serif">12</text><text x="1310.774" y="465.373" fill="#2D3748" font-size="12" textLength="279.674" font-family="'Segoe UI', 'Helvetica', 'Arial', sans-serif">UPDATE solicitudes SET estado='Contraoferta'</text><polygon points="1294.075,494.172,1284.075,498.172,1294.075,502.172,1290.075,498.172" fill="#3182CE" style="stroke:#3182CE;stroke-width:1;stroke-linejoin:miter;stroke-miterlimit:10;"/><line x1="1288.075" y1="498.172" x2="1601.448" y2="498.172" style="stroke:#3182CE;stroke-width:1;stroke-dasharray:2,2;"/><text x="1300.075" y="493.342" fill="#2D3748" font-size="12" textLength="16.699" font-weight="700" font-family="'Segoe UI', 'Helvetica', 'Arial', sans-serif">13</text><text x="1320.774" y="493.342" fill="#2D3748" font-size="12" textLength="17.314" font-family="'Segoe UI', 'Helvetica', 'Arial', sans-serif">OK</text><polygon points="825.688,522.141,815.688,526.141,825.688,530.141,821.688,526.141" fill="#3182CE" style="stroke:#3182CE;stroke-width:1;stroke-linejoin:miter;stroke-miterlimit:10;"/><line x1="819.688" y1="526.141" x2="1272.075" y2="526.141" style="stroke:#3182CE;stroke-width:1;stroke-dasharray:2,2;"/><text x="831.688" y="521.311" fill="#2D3748" font-size="12" textLength="16.699" font-weight="700" font-family="'Segoe UI', 'Helvetica', 'Arial', sans-serif">14</text><text x="852.387" y="521.311" fill="#2D3748" font-size="12" textLength="220.617" font-family="'Segoe UI', 'Helvetica', 'Arial', sans-serif">Actualiza hilo de chat en tiempo real</text><polygon points="802.688,550.109,812.688,554.109,802.688,558.109,806.688,554.109" fill="#3182CE" style="stroke:#3182CE;stroke-width:1;stroke-linejoin:miter;stroke-miterlimit:10;"/><line x1="71.969" y1="554.109" x2="808.688" y2="554.109" style="stroke:#3182CE;stroke-width:1;"/><text x="78.969" y="549.279" fill="#2D3748" font-size="12" textLength="16.699" font-weight="700" font-family="'Segoe UI', 'Helvetica', 'Arial', sans-serif">15</text><text x="99.668" y="549.279" fill="#2D3748" font-size="12" textLength="198.873" font-family="'Segoe UI', 'Helvetica', 'Arial', sans-serif">Lee propuesta y acepta términos</text><polygon points="1023.392,578.078,1033.392,582.078,1023.392,586.078,1027.392,582.078" fill="#3182CE" style="stroke:#3182CE;stroke-width:1;stroke-linejoin:miter;stroke-miterlimit:10;"/><line x1="814.688" y1="582.078" x2="1029.392" y2="582.078" style="stroke:#3182CE;stroke-width:1;"/><text x="821.688" y="577.248" fill="#2D3748" font-size="12" textLength="16.699" font-weight="700" font-family="'Segoe UI', 'Helvetica', 'Arial', sans-serif">16</text><text x="842.387" y="577.248" fill="#2D3748" font-size="12" textLength="135.322" font-family="'Segoe UI', 'Helvetica', 'Arial', sans-serif">POST aceptar solicitud</text><polygon points="1590.448,606.047,1600.448,610.047,1590.448,614.047,1594.448,610.047" fill="#3182CE" style="stroke:#3182CE;stroke-width:1;stroke-linejoin:miter;stroke-miterlimit:10;"/><line x1="1045.392" y1="610.047" x2="1596.448" y2="610.047" style="stroke:#3182CE;stroke-width:1;"/><text x="1052.392" y="605.217" fill="#2D3748" font-size="12" textLength="16.699" font-weight="700" font-family="'Segoe UI', 'Helvetica', 'Arial', sans-serif">17</text><text x="1073.091" y="605.217" fill="#2D3748" font-size="12" textLength="260.25" font-family="'Segoe UI', 'Helvetica', 'Arial', sans-serif">UPDATE solicitudes SET estado='Aceptada'</text><polygon points="1590.448,634.016,1600.448,638.016,1590.448,642.016,1594.448,638.016" fill="#3182CE" style="stroke:#3182CE;stroke-width:1;stroke-linejoin:miter;stroke-miterlimit:10;"/><line x1="1045.392" y1="638.016" x2="1596.448" y2="638.016" style="stroke:#3182CE;stroke-width:1;"/><text x="1052.392" y="633.186" fill="#2D3748" font-size="12" textLength="16.699" font-weight="700" font-family="'Segoe UI', 'Helvetica', 'Arial', sans-serif">18</text><text x="1073.091" y="633.186" fill="#2D3748" font-size="12" textLength="194.033" font-family="'Segoe UI', 'Helvetica', 'Arial', sans-serif">INSERT INTO contrataciones (...)</text><polygon points="82.969,661.984,72.969,665.984,82.969,669.984,78.969,665.984" fill="#3182CE" style="stroke:#3182CE;stroke-width:1;stroke-linejoin:miter;stroke-miterlimit:10;"/><line x1="76.969" y1="665.984" x2="813.688" y2="665.984" style="stroke:#3182CE;stroke-width:1;stroke-dasharray:2,2;"/><text x="88.969" y="661.154" fill="#2D3748" font-size="12" textLength="16.699" font-weight="700" font-family="'Segoe UI', 'Helvetica', 'Arial', sans-serif">19</text><text x="109.668" y="661.154" fill="#2D3748" font-size="12" textLength="264.744" font-family="'Segoe UI', 'Helvetica', 'Arial', sans-serif">Redirige a pasarela de pago para formalizar</text><?plantuml-src dLRRRjj647tdLqpL1zc0PJVEJH3G0heYGUrOZPo-6cDo96souhApInbAaG_gGv_w2VwnpYv9aR8ajmW1IUJkdBcSCxFK3sv9Au9CeqgZo7vHQOQCAxZ7-Ck2JPucGwCDmu-JS3Kix18Jyw3I1JZEgR4HKB7Xb1YwZVM4vfXhDp6f-u0IipsZXI7uzBvz1krtfDVaL8p-eSyAjTnOJ6t74glvOJSpzPNWnUNXpJBloz7Bjw-wpT9YZTR2dn78DJXIfj_hCvk7SldbY-xbS5n032V4bVV1c-7Wfx3-Zb3MznoE1vEkEFpMI81IfzpcVsHmA5JJaQK_SafZAbtrOsVuM7h5vf7ilC4KMVXN6QRkc8-coJEUhjIShbHAEsvUzL-_VjFTtT_pCPfSJjxkaN-WyjnIZ9Q-ayDdrFr-3hz5aSYg2KOA5v8ZIZF2Z6AlaC8Up8mMxboU5EkybYS32DUKg0HX0yCbkYZ2t9aqNzqJH-Z3GMji1QI4Su8B66ebxKCjG5lTLtOZ4rDXD6Mp9aeC1xDoFRhtEIDleBLMz60lvePN7LjaXUpdBAHqdYspWFjTh2PYimUqLILRJ2SXXrhJ3ZRK4yiaij7GafqQIFOYPaA-swviaSCx8UeuR4MfnSza3oAlxI8gXwiryEqXJ8_G6GidrvlPRrUd1H-3A2gfWyulsp9xC3IhJ4iXu9d9DRBe8nxOJnchbKSOE76FVxjScpFPiZ6hB5QF_wHda37PFCl9Ejd2v7CkngTHvTm72fNrO7epkuL3vNiTrHebguA3yEs1eq4Ftd-OZJ_Uoi_j3JJuW1C9AEVmp-qffKceISxDy_FpqsWqW4uTLILriChpJl4VfGrPBKWwidMjRDskP5iWSlZFNF4AGxrHGa-oZQhsAxrwzNioCJ49XQYXx11FgCQw164tLlSo04syBtXeKYidkKnH451WDMO3LHjKLTOHXyWBXAKI7VnRn0CbypMnBJC_dEZOQtaVR1sZcHDBw8igZlU2yjxWqaU5AsILjYjbfNIja2jKKr3Vck7xMK7lghhW96YuW_Wq7VLlnplgpyOIiso0OIFpTgr-IExcryhL4tLSZbfzzNpfqEknBufIS8fMcH5nKEzAxUjuEZs5iokIln5imWZuumnZokJ6FVx5AvKQ-uIqUXOAGwuBUtOG_eE5Vd2M20D7nwUGs8cK9jqolTVFTRO-tQBWdId9q2AJ3iTyXWi3_iqKZev0AVyB?></g></svg>